<?xml version="1.0" encoding="UTF-8"?>
<svg xmlns="http://www.w3.org/2000/svg" width="1254" height="1254" viewBox="0 0 1254 1254" role="img" aria-label="extracted waveform and text-like line icon">
<defs>
<filter id="softGlow" x="-20%" y="-20%" width="140%" height="140%">
<feGaussianBlur stdDeviation="3" result="blur"/>
<feMerge><feMergeNode in="blur"/><feMergeNode in="SourceGraphic"/></feMerge>
</filter>
</defs>
<g id="subject" fill-rule="evenodd">
<g id="glow" opacity="0.28" filter="url(#softGlow)">
<path fill="#d88a28" d="M 423.0 419.0 L 410.0 427.0 L 401.0 448.0 L 379.0 715.0 L 374.0 737.0 L 368.0 743.0 L 357.0 743.0 L 352.0 737.0 L 348.0 724.0 L 338.0 543.0 L 336.0 533.0 L 331.0 522.0 L 321.0 513.0 L 309.0 511.0 L 298.0 515.0 L 291.0 523.0 L 287.0 532.0 L 283.0 558.0 L 278.0 652.0 L 276.0 665.0 L 270.0 676.0 L 265.0 678.0 L 256.0 670.0 L 253.0 658.0 L 251.0 619.0 L 248.0 601.0 L 244.0 593.0 L 239.0 588.0 L 232.0 585.0 L 219.0 586.0 L 210.0 594.0 L 206.0 603.0 L 203.0 621.0 L 199.0 627.0 L 185.0 629.0 L 145.0 629.0 L 143.0 631.0 L 143.0 637.0 L 145.0 639.0 L 199.0 639.0 L 209.0 632.0 L 213.0 624.0 L 218.0 601.0 L 222.0 597.0 L 229.0 595.0 L 235.0 599.0 L 239.0 609.0 L 243.0 662.0 L 249.0 679.0 L 253.0 684.0 L 261.0 688.0 L 269.0 688.0 L 276.0 685.0 L 283.0 676.0 L 288.0 656.0 L 296.0 538.0 L 303.0 525.0 L 308.0 522.0 L 315.0 522.0 L 323.0 529.0 L 328.0 546.0 L 336.0 705.0 L 339.0 732.0 L 345.0 746.0 L 353.0 753.0 L 367.0 755.0 L 376.0 751.0 L 384.0 740.0 L 389.0 720.0 L 411.0 451.0 L 413.0 443.0 L 419.0 433.0 L 427.0 429.0 L 432.0 430.0 L 439.0 435.0 L 442.0 441.0 L 446.0 461.0 L 453.0 756.0 L 455.0 768.0 L 460.0 781.0 L 471.0 790.0 L 482.0 790.0 L 488.0 787.0 L 495.0 778.0 L 500.0 758.0 L 508.0 536.0 L 511.0 520.0 L 517.0 511.0 L 522.0 510.0 L 528.0 515.0 L 532.0 527.0 L 541.0 626.0 L 547.0 645.0 L 553.0 651.0 L 559.0 653.0 L 568.0 652.0 L 575.0 646.0 L 581.0 630.0 L 583.0 608.0 L 586.0 600.0 L 592.0 595.0 L 599.0 597.0 L 603.0 602.0 L 610.0 628.0 L 617.0 639.0 L 628.0 645.0 L 640.0 645.0 L 643.0 642.0 L 643.0 637.0 L 640.0 634.0 L 630.0 634.0 L 622.0 628.0 L 618.0 619.0 L 614.0 601.0 L 605.0 588.0 L 598.0 585.0 L 589.0 585.0 L 583.0 588.0 L 575.0 599.0 L 572.0 611.0 L 571.0 627.0 L 567.0 639.0 L 560.0 642.0 L 555.0 638.0 L 551.0 622.0 L 545.0 543.0 L 541.0 519.0 L 537.0 509.0 L 529.0 501.0 L 515.0 500.0 L 511.0 502.0 L 502.0 514.0 L 498.0 531.0 L 489.0 761.0 L 484.0 776.0 L 479.0 780.0 L 473.0 779.0 L 468.0 774.0 L 463.0 749.0 L 456.0 455.0 L 454.0 444.0 L 447.0 428.0 L 439.0 421.0 L 433.0 419.0 Z"/>
<path fill="#d88a28" d="M 587.0 544.0 L 587.0 549.0 L 591.0 553.0 L 599.0 553.0 L 603.0 550.0 L 603.0 544.0 L 599.0 540.0 L 592.0 540.0 Z"/>
<path fill="#d88a28" d="M 628.0 562.0 L 628.0 568.0 L 633.0 572.0 L 647.0 572.0 L 652.0 568.0 L 652.0 563.0 L 647.0 559.0 L 633.0 559.0 Z"/>
<path fill="#d88a28" d="M 677.0 560.0 L 671.0 566.0 L 672.0 571.0 L 676.0 574.0 L 682.0 574.0 L 686.0 570.0 L 686.0 565.0 L 683.0 561.0 Z"/>
<path fill="#d88a28" d="M 704.0 563.0 L 704.0 569.0 L 707.0 572.0 L 719.0 572.0 L 722.0 569.0 L 722.0 564.0 L 718.0 560.0 L 708.0 560.0 Z"/>
<path fill="#d88a28" d="M 642.0 609.0 L 646.0 615.0 L 657.0 615.0 L 660.0 612.0 L 660.0 606.0 L 656.0 603.0 L 647.0 603.0 Z"/>
<path fill="#d88a28" d="M 667.0 638.0 L 671.0 645.0 L 683.0 645.0 L 687.0 641.0 L 687.0 637.0 L 683.0 633.0 L 672.0 633.0 Z"/>
<path fill="#d88a28" d="M 711.0 633.0 L 708.0 636.0 L 708.0 642.0 L 711.0 645.0 L 719.0 645.0 L 722.0 642.0 L 722.0 636.0 L 717.0 632.0 Z"/>
<path fill="#d88a28" d="M 595.0 677.0 L 594.0 681.0 L 597.0 686.0 L 608.0 687.0 L 614.0 682.0 L 613.0 677.0 L 608.0 674.0 L 601.0 674.0 Z"/>
<path fill="#d88a28" d="M 643.0 674.0 L 644.0 679.0 L 647.0 681.0 L 655.0 682.0 L 660.0 678.0 L 660.0 672.0 L 657.0 669.0 L 647.0 669.0 Z"/>
<path fill="#d88a28" d="M 554.0 705.0 L 554.0 710.0 L 558.0 714.0 L 567.0 714.0 L 571.0 711.0 L 571.0 705.0 L 568.0 702.0 L 559.0 701.0 Z"/>
<path fill="#d88a28" d="M 624.0 708.0 L 624.0 711.0 L 628.0 716.0 L 647.0 716.0 L 651.0 712.0 L 651.0 708.0 L 648.0 704.0 L 627.0 704.0 Z"/>
<path fill="#d88a28" d="M 679.0 703.0 L 676.0 707.0 L 677.0 713.0 L 681.0 716.0 L 687.0 716.0 L 691.0 712.0 L 690.0 704.0 L 687.0 702.0 Z"/>
</g>
<g id="vector-shapes">
<path fill="#d88a28" d="M 423.0 419.0 L 410.0 427.0 L 401.0 448.0 L 379.0 715.0 L 374.0 737.0 L 368.0 743.0 L 357.0 743.0 L 352.0 737.0 L 348.0 724.0 L 338.0 543.0 L 336.0 533.0 L 331.0 522.0 L 321.0 513.0 L 309.0 511.0 L 298.0 515.0 L 291.0 523.0 L 287.0 532.0 L 283.0 558.0 L 278.0 652.0 L 276.0 665.0 L 270.0 676.0 L 265.0 678.0 L 256.0 670.0 L 253.0 658.0 L 251.0 619.0 L 248.0 601.0 L 244.0 593.0 L 239.0 588.0 L 232.0 585.0 L 219.0 586.0 L 210.0 594.0 L 206.0 603.0 L 203.0 621.0 L 199.0 627.0 L 185.0 629.0 L 145.0 629.0 L 143.0 631.0 L 143.0 637.0 L 145.0 639.0 L 199.0 639.0 L 209.0 632.0 L 213.0 624.0 L 218.0 601.0 L 222.0 597.0 L 229.0 595.0 L 235.0 599.0 L 239.0 609.0 L 243.0 662.0 L 249.0 679.0 L 253.0 684.0 L 261.0 688.0 L 269.0 688.0 L 276.0 685.0 L 283.0 676.0 L 288.0 656.0 L 296.0 538.0 L 303.0 525.0 L 308.0 522.0 L 315.0 522.0 L 323.0 529.0 L 328.0 546.0 L 336.0 705.0 L 339.0 732.0 L 345.0 746.0 L 353.0 753.0 L 367.0 755.0 L 376.0 751.0 L 384.0 740.0 L 389.0 720.0 L 411.0 451.0 L 413.0 443.0 L 419.0 433.0 L 427.0 429.0 L 432.0 430.0 L 439.0 435.0 L 442.0 441.0 L 446.0 461.0 L 453.0 756.0 L 455.0 768.0 L 460.0 781.0 L 471.0 790.0 L 482.0 790.0 L 488.0 787.0 L 495.0 778.0 L 500.0 758.0 L 508.0 536.0 L 511.0 520.0 L 517.0 511.0 L 522.0 510.0 L 528.0 515.0 L 532.0 527.0 L 541.0 626.0 L 547.0 645.0 L 553.0 651.0 L 559.0 653.0 L 568.0 652.0 L 575.0 646.0 L 581.0 630.0 L 583.0 608.0 L 586.0 600.0 L 592.0 595.0 L 599.0 597.0 L 603.0 602.0 L 610.0 628.0 L 617.0 639.0 L 628.0 645.0 L 640.0 645.0 L 643.0 642.0 L 643.0 637.0 L 640.0 634.0 L 630.0 634.0 L 622.0 628.0 L 618.0 619.0 L 614.0 601.0 L 605.0 588.0 L 598.0 585.0 L 589.0 585.0 L 583.0 588.0 L 575.0 599.0 L 572.0 611.0 L 571.0 627.0 L 567.0 639.0 L 560.0 642.0 L 555.0 638.0 L 551.0 622.0 L 545.0 543.0 L 541.0 519.0 L 537.0 509.0 L 529.0 501.0 L 515.0 500.0 L 511.0 502.0 L 502.0 514.0 L 498.0 531.0 L 489.0 761.0 L 484.0 776.0 L 479.0 780.0 L 473.0 779.0 L 468.0 774.0 L 463.0 749.0 L 456.0 455.0 L 454.0 444.0 L 447.0 428.0 L 439.0 421.0 L 433.0 419.0 Z"/>
<path fill="#d88a28" d="M 587.0 544.0 L 587.0 549.0 L 591.0 553.0 L 599.0 553.0 L 603.0 550.0 L 603.0 544.0 L 599.0 540.0 L 592.0 540.0 Z"/>
<path fill="#d88a28" d="M 628.0 562.0 L 628.0 568.0 L 633.0 572.0 L 647.0 572.0 L 652.0 568.0 L 652.0 563.0 L 647.0 559.0 L 633.0 559.0 Z"/>
<path fill="#e7e2da" d="M 740.0 564.0 L 741.0 573.0 L 745.0 576.0 L 751.0 577.0 L 847.0 577.0 L 851.0 576.0 L 856.0 570.0 L 855.0 563.0 L 849.0 559.0 L 747.0 559.0 Z"/>
<path fill="#e7e2da" d="M 876.0 565.0 L 877.0 573.0 L 886.0 577.0 L 930.0 577.0 L 935.0 575.0 L 938.0 571.0 L 937.0 563.0 L 931.0 559.0 L 883.0 559.0 Z"/>
<path fill="#e7e2da" d="M 958.0 565.0 L 959.0 572.0 L 963.0 576.0 L 967.0 577.0 L 1051.0 577.0 L 1057.0 575.0 L 1060.0 571.0 L 1059.0 563.0 L 1053.0 559.0 L 965.0 559.0 Z"/>
<path fill="#e7e2da" d="M 1088.0 559.0 L 1081.0 560.0 L 1077.0 564.0 L 1078.0 573.0 L 1085.0 577.0 L 1090.0 576.0 L 1094.0 571.0 L 1094.0 565.0 Z"/>
<path fill="#d88a28" d="M 677.0 560.0 L 671.0 566.0 L 672.0 571.0 L 676.0 574.0 L 682.0 574.0 L 686.0 570.0 L 686.0 565.0 L 683.0 561.0 Z"/>
<path fill="#d88a28" d="M 704.0 563.0 L 704.0 569.0 L 707.0 572.0 L 719.0 572.0 L 722.0 569.0 L 722.0 564.0 L 718.0 560.0 L 708.0 560.0 Z"/>
<path fill="#d88a28" d="M 642.0 609.0 L 646.0 615.0 L 657.0 615.0 L 660.0 612.0 L 660.0 606.0 L 656.0 603.0 L 647.0 603.0 Z"/>
<path fill="#d88a28" d="M 667.0 638.0 L 671.0 645.0 L 683.0 645.0 L 687.0 641.0 L 687.0 637.0 L 683.0 633.0 L 672.0 633.0 Z"/>
<path fill="#d88a28" d="M 711.0 633.0 L 708.0 636.0 L 708.0 642.0 L 711.0 645.0 L 719.0 645.0 L 722.0 642.0 L 722.0 636.0 L 717.0 632.0 Z"/>
<path fill="#e7e2da" d="M 740.0 635.0 L 740.0 643.0 L 746.0 648.0 L 899.0 648.0 L 903.0 646.0 L 906.0 641.0 L 906.0 637.0 L 901.0 631.0 L 745.0 631.0 Z"/>
<path fill="#e7e2da" d="M 926.0 637.0 L 928.0 645.0 L 933.0 648.0 L 1002.0 648.0 L 1008.0 643.0 L 1009.0 640.0 L 1008.0 635.0 L 1003.0 631.0 L 931.0 631.0 Z"/>
<path fill="#e7e2da" d="M 1038.0 631.0 L 1033.0 636.0 L 1033.0 643.0 L 1039.0 648.0 L 1044.0 648.0 L 1050.0 643.0 L 1050.0 635.0 L 1046.0 631.0 Z"/>
<path fill="#e7e2da" d="M 1079.0 631.0 L 1074.0 637.0 L 1074.0 642.0 L 1078.0 647.0 L 1085.0 648.0 L 1091.0 643.0 L 1091.0 635.0 L 1087.0 631.0 Z"/>
<path fill="#d88a28" d="M 595.0 677.0 L 594.0 681.0 L 597.0 686.0 L 608.0 687.0 L 614.0 682.0 L 613.0 677.0 L 608.0 674.0 L 601.0 674.0 Z"/>
<path fill="#d88a28" d="M 643.0 674.0 L 644.0 679.0 L 647.0 681.0 L 655.0 682.0 L 660.0 678.0 L 660.0 672.0 L 657.0 669.0 L 647.0 669.0 Z"/>
<path fill="#d88a28" d="M 554.0 705.0 L 554.0 710.0 L 558.0 714.0 L 567.0 714.0 L 571.0 711.0 L 571.0 705.0 L 568.0 702.0 L 559.0 701.0 Z"/>
<path fill="#d88a28" d="M 624.0 708.0 L 624.0 711.0 L 628.0 716.0 L 647.0 716.0 L 651.0 712.0 L 651.0 708.0 L 648.0 704.0 L 627.0 704.0 Z"/>
<path fill="#d88a28" d="M 679.0 703.0 L 676.0 707.0 L 677.0 713.0 L 681.0 716.0 L 687.0 716.0 L 691.0 712.0 L 690.0 704.0 L 687.0 702.0 Z"/>
<path fill="#e7e2da" d="M 712.0 706.0 L 712.0 711.0 L 717.0 717.0 L 788.0 717.0 L 794.0 710.0 L 792.0 703.0 L 787.0 700.0 L 718.0 700.0 Z"/>
<path fill="#e7e2da" d="M 814.0 705.0 L 814.0 712.0 L 819.0 717.0 L 952.0 717.0 L 958.0 710.0 L 956.0 703.0 L 951.0 700.0 L 820.0 700.0 Z"/>
<path fill="#e7e2da" d="M 978.0 705.0 L 978.0 712.0 L 983.0 717.0 L 1054.0 717.0 L 1059.0 712.0 L 1059.0 705.0 L 1053.0 700.0 L 984.0 700.0 Z"/>
<path fill="#e7e2da" d="M 1083.0 700.0 L 1077.0 705.0 L 1077.0 712.0 L 1082.0 717.0 L 1089.0 717.0 L 1094.0 712.0 L 1094.0 706.0 L 1090.0 701.0 Z"/>
</g></g></svg>